<svg width="32" height="32" viewBox="0 0 32 32" fill="none" xmlns="http://www.w3.org/2000/svg">
<path d="M25.4599 11.9124C27.2117 11.9124 28.6131 13.3138 28.6131 15.0656C28.6131 16.8175 27.2117 18.2189 25.4599 18.2189C23.7081 18.2189 22.3066 16.8175 22.3066 15.0656C22.3066 13.3138 23.708 11.9124 25.4599 11.9124Z" fill="#F2C94C"/>
<path d="M29.781 15.0657C29.781 12.6911 27.8346 10.7445 25.4598 10.7445C23.0851 10.7445 21.1386 12.691 21.1386 15.0657C21.1386 17.0511 22.4622 18.7251 24.2919 19.2312V23.8249C24.2919 25.382 23.669 26.8225 22.5401 27.9514C21.489 29.0415 20.0097 29.6643 18.4525 29.6643C15.2214 29.6643 12.6131 27.056 12.6131 23.8249V17.2458C14.7153 17.0122 16.7007 16.039 18.18 14.5597C19.9318 12.8079 20.905 10.4721 20.905 7.94172V2.41364C20.905 1.75181 20.3989 1.24579 19.7372 1.24579H16V3.58156H18.5693V7.94164C18.5693 9.84919 17.8296 11.601 16.545 12.9246C15.2214 14.2482 13.4307 14.9879 11.5621 14.9879C7.70811 14.9879 4.55478 11.8346 4.55478 7.98054V3.58149H7.04629V1.24572H3.38693C2.72511 1.24572 2.21909 1.75181 2.21909 2.41356V7.98046C2.21909 12.6909 5.72271 16.6228 10.2775 17.2457V23.8248C10.2775 28.3406 13.9368 31.9999 18.4526 31.9999C20.6717 31.9999 22.7349 31.1435 24.2142 29.5863C25.7714 28.0291 26.6278 26.0048 26.6278 23.8248V19.2312C28.4574 18.7251 29.781 17.0511 29.781 15.0657ZM25.4599 17.0511C24.3309 17.0511 23.4745 16.1947 23.4745 15.0657C23.4745 13.9368 24.3309 13.0803 25.4599 13.0803C26.5888 13.0803 27.4453 13.9368 27.4453 15.0657C27.4453 16.1947 26.5888 17.0511 25.4599 17.0511Z" fill="#27AE60"/>
<path d="M7.00731 4.82728C6.34548 4.82728 5.83946 4.32118 5.83946 3.65943V1.16785C5.83939 0.506095 6.34548 0 7.00731 0C7.66914 0 8.17517 0.506095 8.17517 1.16785V3.65935C8.17517 4.32118 7.66907 4.82728 7.00731 4.82728Z" fill="#F2C94C"/>
<path d="M16.0389 4.82728C15.3771 4.82728 14.8711 4.32118 14.8711 3.65943V1.16785C14.871 0.506095 15.3771 0 16.0389 0C16.7008 0 17.2068 0.506095 17.2068 1.16785V3.65935C17.2068 4.32118 16.7008 4.82728 16.0389 4.82728Z" fill="#F2C94C"/>
</svg>
