<svg width="32" height="32" viewBox="0 0 32 32" fill="none" xmlns="http://www.w3.org/2000/svg">
<path d="M25.5018 18.3107C23.9521 16.7611 22.0902 15.6374 20.0583 14.9966C20.4139 14.7521 20.7504 14.4743 21.0634 14.1637C22.4331 12.8041 23.1875 10.9924 23.1875 9.0625V2.8125C23.1875 1.26169 21.9258 0 20.375 0H11.625C10.0742 0 8.8125 1.26169 8.8125 2.8125V8.98406C8.8125 11.4716 10.0642 13.6782 11.9642 14.9894C9.92356 15.6291 8.05369 16.7553 6.49825 18.3107C3.96025 20.8487 2.5625 24.2232 2.5625 27.8125V32H29.4375V27.8125C29.4375 24.2232 28.0398 20.8487 25.5018 18.3107ZM10.6875 2.8125C10.6875 2.29556 11.1081 1.875 11.625 1.875H16H20.375C20.8919 1.875 21.3125 2.29556 21.3125 2.8125V3.75H18.6513C18.2643 2.65887 17.2222 1.875 16 1.875C14.7778 1.875 13.7358 2.65887 13.3488 3.75H10.6875V2.8125ZM16.9375 4.6875C16.9375 5.20444 16.5169 5.625 16 5.625C15.4831 5.625 15.0625 5.20444 15.0625 4.6875C15.0625 4.17056 15.4831 3.75 16 3.75C16.5169 3.75 16.9375 4.17056 16.9375 4.6875ZM10.6875 8.98406V5.625H13.3488C13.7358 6.71613 14.7778 7.5 16 7.5C17.2222 7.5 18.2643 6.71613 18.6513 5.625H21.3125V9.0625C21.3125 10.4889 20.7549 11.828 19.7424 12.833C18.7301 13.8378 17.3855 14.3826 15.9596 14.3748C13.0525 14.3533 10.6875 11.935 10.6875 8.98406ZM15.0625 30.125H4.4375V27.8125C4.4375 23.2026 7.14963 19.2148 11.0618 17.3591L15.0625 21.3599V30.125ZM12.9998 16.6456C13.957 16.3881 14.9626 16.25 16 16.25C17.0358 16.25 18.0399 16.3877 18.9958 16.6444L15.9972 19.6429L12.9998 16.6456ZM27.5625 30.125H16.9375V21.3542L20.9344 17.3573C24.8486 19.2121 27.5625 23.2011 27.5625 27.8125V30.125Z" fill="#27AE60"/>
<path d="M23.1875 24.5V22.625H21.3125V24.5H19.4375V26.375H21.3125V28.25H23.1875V26.375H25.0625V24.5H23.1875Z" fill="#F2C94C"/>
</svg>
