<svg width="32" height="32" viewBox="0 0 32 32" fill="none" xmlns="http://www.w3.org/2000/svg">
<path d="M6.96249 10.9125C7.48026 10.9125 7.89999 10.4928 7.89999 9.97501C7.89999 9.45724 7.48026 9.03751 6.96249 9.03751C6.44473 9.03751 6.02499 9.45724 6.02499 9.97501C6.02499 10.4928 6.44473 10.9125 6.96249 10.9125Z" fill="#333333"/>
<path d="M12.9875 10.9125C13.5053 10.9125 13.925 10.4928 13.925 9.97501C13.925 9.45724 13.5053 9.03751 12.9875 9.03751C12.4697 9.03751 12.05 9.45724 12.05 9.97501C12.05 10.4928 12.4697 10.9125 12.9875 10.9125Z" fill="#333333"/>
<path d="M14.9959 23.0958H14.9292V21.845C16.3553 21.4964 17.4798 20.3719 17.8284 18.9458H18.0084C18.5262 18.9458 18.9459 18.5261 18.9459 18.0083C18.9459 17.4906 18.5262 17.0708 18.0084 17.0708H17.9417V14.9291H18.0084C18.5262 14.9291 18.9459 14.5094 18.9459 13.9916C18.9459 13.4739 18.5262 13.0541 18.0084 13.0541H17.9417V12.9875V7.9H18.0084C18.5262 7.9 18.9459 7.48025 18.9459 6.9625C18.9459 3.11762 15.8354 0 11.9834 0H7.96562C4.12706 0 1.00412 3.12294 1.00412 6.9615V6.9625C1.00412 7.48025 1.42387 7.9 1.94162 7.9H2.00831V12.9875V13.0542H1.94162C1.42387 13.0542 1.00412 13.4739 1.00412 13.9917C1.00412 14.5094 1.42387 14.9292 1.94162 14.9292H2.00831V17.0709H1.94162C1.42387 17.0709 1.00412 17.4906 1.00412 18.0084C1.00412 18.5261 1.42387 18.9459 1.94162 18.9459H2.12169C2.47025 20.372 3.59469 21.4965 5.02081 21.8451V23.0959H4.95419C2.22244 23.0958 0 25.3182 0 28.05V31.0625C0 31.5802 0.41975 32 0.9375 32C1.45525 32 1.875 31.5802 1.875 31.0625V28.05C1.875 26.3521 3.25631 24.9708 4.95419 24.9708H5.57006L9.31213 28.7129C9.67819 29.079 10.2718 29.079 10.6379 28.7129L14.38 24.9708H14.9959C16.6938 24.9708 18.0751 26.3521 18.0751 28.05V31.0625C18.0751 31.5802 18.4948 32 19.0126 32C19.5303 32 19.9501 31.5802 19.9501 31.0625V28.05C19.95 25.3182 17.7276 23.0958 14.9959 23.0958ZM11.9833 1.875C14.3804 1.875 16.5321 3.57875 16.9852 6.025H15.9989C13.5144 6.025 11.4401 4.23425 10.999 1.875H11.9833ZM15.9989 7.9H16.0666V12.05H3.88337V7.9H3.951C6.52025 7.9 8.76869 6.50075 9.97488 4.42419C11.1811 6.50063 13.4296 7.9 15.9989 7.9ZM2.96556 6.025C3.40631 3.66594 5.48069 1.875 7.96562 1.875H8.95106C8.51031 4.23406 6.43594 6.025 3.951 6.025H2.96556ZM13.0541 23.645L9.975 26.7241L6.89581 23.6449V21.9583H13.0541V23.645ZM13.9916 20.0833H5.95831C4.81419 20.0833 3.88337 19.1524 3.88337 18.0083V13.925H16.0667V18.0083C16.0666 19.1525 15.1358 20.0833 13.9916 20.0833Z" fill="#27AE60"/>
<path d="M31.0625 27.9833C31.5802 27.9833 32 27.5636 32 27.0458C32 26.5281 31.5802 26.1083 31.0625 26.1083H30.8825C30.7853 25.7107 30.6286 25.3363 30.421 24.9958L31.2231 24.1945C31.5893 23.8286 31.5896 23.2349 31.2237 22.8687C30.8578 22.5024 30.2642 22.5021 29.8979 22.8681L29.095 23.6701C28.7547 23.4628 28.3806 23.3063 27.9834 23.2092V23.0292C27.9834 22.5114 27.5636 22.0917 27.0459 22.0917C26.5281 22.0917 26.1084 22.5114 26.1084 23.0292V23.2092C25.7111 23.3063 25.3369 23.4628 24.9967 23.6701L24.1939 22.8681C23.8276 22.5021 23.2341 22.5024 22.8681 22.8687C22.5022 23.235 22.5024 23.8286 22.8687 24.1945L23.6708 24.9958C23.4633 25.3363 23.3065 25.7108 23.2093 26.1083H23.0293C22.5116 26.1083 22.0918 26.5281 22.0918 27.0458C22.0918 27.5636 22.5116 27.9833 23.0293 27.9833H23.2093C23.3065 28.3809 23.4633 28.7554 23.6708 29.0959L22.8687 29.8973C22.5024 30.2632 22.5022 30.8568 22.8681 31.2231C23.2341 31.5894 23.8277 31.5896 24.1939 31.2237L24.9967 30.4216C25.337 30.6289 25.7112 30.7854 26.1084 30.8826V31.0625C26.1084 31.5803 26.5282 32 27.0459 32C27.5637 32 27.9834 31.5803 27.9834 31.0625V30.8825C28.3807 30.7854 28.7549 30.6289 29.0951 30.4216L29.8979 31.2236C30.2642 31.5896 30.8577 31.5893 31.2237 31.223C31.5897 30.8567 31.5894 30.2631 31.2231 29.8972L30.4211 29.0959C30.6286 28.7554 30.7854 28.3809 30.8826 27.9833H31.0625ZM27.0458 29.1208C25.9016 29.1208 24.9708 28.19 24.9708 27.0458C24.9708 25.9016 25.9017 24.9708 27.0458 24.9708C28.1899 24.9708 29.1208 25.9017 29.1208 27.0458C29.1208 28.1899 28.19 29.1208 27.0458 29.1208Z" fill="#F2C94C"/>
</svg>
